<?xml version="1.0" encoding="UTF-8"?>
<svg id="Layer_1" xmlns="http://www.w3.org/2000/svg" version="1.1" viewBox="0 0 439 178.8">
  <!-- Generator: Adobe Illustrator 29.2.1, SVG Export Plug-In . SVG Version: 2.1.0 Build 116)  -->
  <defs>
    <style>
      .st0 {
        fill: #f7f5f5;
      }

      .st1 {
        fill: #fac32e;
      }

      .st1, .st2, .st3, .st4, .st5, .st6, .st7 {
        font-family: MicrosoftSansSerif, 'Microsoft Sans Serif';
      }

      .st1, .st3 {
        font-size: 29.3px;
      }

      .st8 {
        fill: #f6f4f2;
      }

      .st9, .st2, .st3, .st4 {
        fill: red;
      }

      .st10 {
        fill: #faf5f4;
      }

      .st2 {
        font-size: 42.3px;
        stroke: #ec1e24;
        stroke-miterlimit: 10;
        stroke-width: .2px;
      }

      .st11 {
        fill: #f5f4f4;
      }

      .st4, .st6 {
        font-size: 19.5px;
      }

      .st5 {
        font-size: 16.3px;
      }

      .st5, .st6, .st7 {
        fill: #fff;
      }

      .st12 {
        fill: lime;
      }

      .st7 {
        font-size: 17.9px;
      }
    </style>
  </defs>
  <rect y="0" width="439" height="178.9"/>
  <path class="st0" d="M335.9,60.1c.8-1.5,1.6-3,2.5-4.5,1,.5,1.9,1,2.9,1.5-.8,1.6-1.5,3.1-2.2,4.6-1.3,2.3-2.5,4.7-3.9,7.1,27.8,13.5,52.6,31,74.7,52.8,1.9-2,3.7-3.9,5.6-5.8,1.2-1.1,2.4-2.2,3.6-3.3.7.8,1.4,1.5,1.9,2-3.2,3.5-6.5,7-9.8,10.6-55.7-54.2-122-82.6-199.7-82.5-77.5,0-143.7,28.6-199.2,82.7-1.7-1.8-3.3-3.5-4.9-5.2-1.6-1.7-3.1-3.3-4.6-4.9.7-.8,1.4-1.6,2.2-2.5,2.9,3,5.6,5.9,8.3,8.7,7.1-6.3,14-12.6,21.1-18.9-1.4-1.7-2.9-3.6-4.5-5.5.8-.7,1.7-1.4,2.6-2.2,1.6,1.9,3.1,3.8,4.6,5.6,7.7-5.5,15.4-10.9,23-16.3-2-3.4-4.1-6.9-6.3-10.5.9-.6,1.8-1.1,2.8-1.7,2.1,3.5,4.2,7,6.3,10.5,8.3-4.6,16.5-9.1,24.8-13.7-1-2.1-2.1-4.2-3.2-6.5,1-.5,1.9-1,3-1.5,1.1,2.2,2.2,4.4,3.3,6.5,8.7-3.6,17.3-7.2,26-10.8-1.3-3.8-2.7-7.7-4.1-11.7,1.1-.4,2.1-.7,3.2-1.1,1.4,4,2.7,8,4,11.7,9.1-2.6,18-5.2,27.2-7.8-.4-2.3-.8-4.6-1.2-7.1,1.1-.2,2.1-.4,3.3-.6.4,2.4.8,4.7,1.2,7,9.3-1.6,18.5-3.1,27.9-4.7-.3-4-.7-8.3-1-12.6,1.1-.1,2.1-.2,3.3-.4.4,4.3.7,8.6,1.1,12.7,9.4-.5,18.8-1.1,28.2-1.6v-7h3.4v7c9.4.5,18.7,1,28.2,1.5.6-4.1,1.2-8.3,1.9-12.7,1.1.1,2.1.3,3.3.5-.2,1.8-.4,3.4-.7,5.1-.4,2.7-.8,5.3-1.1,7.8,9.4,1.6,18.6,3.1,27.9,4.6.5-2.5,1.1-5.1,1.7-7.7.4-1.6.8-3.2,1.3-4.9,1,.2,2.1.4,3.2.7-.4,1.8-.7,3.4-1,5-.6,2.6-1.3,5.2-1.9,7.8,19.6,4.5,38.2,11,56.3,19.4,1.3-2.5,2.4-4.9,3.6-7.2Z"/>
  <path class="st11" d="M244.2,59.6c-1.2-.1-2.1-.2-3.3-.3.4-3.7.8-7.2,1.2-11.2-10.2-.5-20.4-1-30.8-1.6v6.8h-3.4v-6.5c-10,.1-19.7.8-29.4,2,.5,3.9,1,7.6,1.5,11.5-1.1.1-2.1.3-3.3.5-.5-3.8-1.1-7.7-1.6-11.5-11.5,1.5-22.7,3.8-33.9,6.6.6,2.4,1.2,4.7,1.8,7.1-1.1.3-2.1.5-3.3.8-.6-2.3-1.2-4.6-1.8-7-13.4,3.7-26.3,8.3-39,14,1.7,3.4,3.3,6.7,5,10.1-1,.5-1.9,1-2.9,1.5-1.7-3.4-3.4-6.8-5.3-10.6-9.5,5.1-18.9,10.1-28.3,15.2,1.4,2.2,2.7,4.2,4,6.2-.9.6-1.8,1.2-2.8,1.9-1.3-2-2.6-4-3.9-6-16.9,10.6-32.3,22.9-46.5,36.8,2.7,2.7,5.4,5.4,8.2,8.2-.9.9-1.7,1.6-2.6,2.3-3-3.1-6.1-6.2-9.5-9.6C63.7,78.1,122.8,50.2,192.2,45.6c83.7-5.5,155.7,22,216.4,80-.7.7-1.1,1.1-1.6,1.7-13.4-13.4-27.9-25.2-43.8-35.6-2,3.1-4,6.1-6,9.2-1-.6-1.8-1.1-2.8-1.8,2-3.1,4-6.1,6.1-9.3-5.6-3.3-11.1-6.5-16.8-9.9-1,2.1-2,4.2-3,6.3-1-.5-2-1-3-1.5,1-2.1,2-4.1,3.1-6.3-5.8-2.8-11.6-5.6-17.6-8.5-.8,2.1-1.6,4-2.4,6-1-.4-2-.8-3.1-1.2.8-2.1,1.5-4,2.4-6.2-6.5-2.5-13-5-19.6-7.4-.7,2.3-1.4,4.3-2,6.5-1.1-.3-2-.6-3.2-.9.6-2.2,1.3-4.3,2-6.6-7.2-2-14.3-4-21.6-6-.5,2.2-.9,4.3-1.4,6.5-1.1-.2-2.2-.4-3.3-.7.5-2.2.9-4.3,1.3-6.5-8.9-2-17.7-3.5-26.7-4.5-.4,3.7-.8,7.2-1.2,10.8Z"/>
  <path class="st8" d="M239.5,100.3c.3-1.7.5-3.3.8-5,0,0,0,0,.2-.3.9.1,2,.3,3.1.4-.2,1.9-.4,3.6-.7,5.4-.4,2.6-.8,5.2-1.2,8,14.9,2.1,29.3,5.5,43.4,10.6,1-2.7,1.9-5.1,2.9-7.6.7-1.8,1.5-3.6,2.3-5.5,1,.4,2,.7,3.1,1.1-.7,1.9-1.4,3.7-2,5.6-1,2.5-2,4.9-3.1,7.5,15,5.6,28.9,12.8,42.2,21.4,1.5-2.3,2.9-4.5,4.4-6.8,1-1.4,2-2.9,3.1-4.5.9.6,1.8,1.2,2.7,1.8-1,1.6-2,3.1-2.9,4.6-1.5,2.2-3,4.4-4.5,6.7,1.5,1.1,3,2.1,4.4,3.1,9.2,6.6,18,13.9,26,22,.5.5.9,1,1.6.2-.3.5-.6,1.1-.9,1.6-42.8-41.1-93.5-62.5-152.8-62.3-59.3.2-109.8,22.1-152.1,63.3-3.6-3.5-7-6.9-10.5-10.4.8-.7,1.6-1.5,2.7-2.5,1.2,1.4,2.5,2.8,3.8,4.3,1.9,2,3.7,4,5.6,6,8.3-8.1,17-15.4,26.4-22.1-1.7-2.3-3.3-4.4-4.9-6.6-1.4-2-2.8-4-4.3-6.1.9-.7,1.7-1.3,2.6-2,1.6,2.1,3.1,4.2,4.6,6.2,1.5,2.2,3.1,4.4,4.5,6.4,8.6-5,16.9-10,25.4-15-1.1-2.2-2.3-4.5-3.6-6.9-.8-1.7-1.7-3.5-2.6-5.4.9-.5,1.9-1,3-1.6,1.9,3.9,3.8,7.7,5.8,11.7,10.2-5,20.7-9,31.7-12.3-1.2-4.4-2.4-8.8-3.6-13.3,1.1-.3,2.1-.6,3.3-.9,1.2,4.4,2.4,8.8,3.5,13.1,6.6-1.5,13.2-3.1,19.8-4.6-.5-4.5-1.1-9.1-1.7-13.7,1.1-.2,2.1-.3,3.3-.5.3,2.2.6,4.3,1,6.3.3,2.7.6,5.3.8,7.9,6.8-.8,13.4-1.6,20.1-2.4-.2-2.6-.4-5.2-.6-7.9v-5.5h3.1c.1,1.7.3,3.5.4,5.3.1,2.7.3,5.3.4,7.8h13.8v-8.2c0-1.8.2-3.7.3-5.6h3.3c0,1.8,0,3.7,0,5.6,0,2.7,0,5.4,0,8,7.2.5,14.4,1,21.6,1.5.4-2.6.8-5.3,1.1-7.9Z"/>
  <path class="st9" d="M415.5,115.8c-1.8,1.9-3.7,3.8-5.6,5.8-22.1-21.8-46.9-39.3-74.7-52.8,1.3-2.4,2.6-4.8,3.9-7.1,8.5,4.7,17,9.4,25.5,14.1-1.2,1.9-2.4,3.8-3.6,5.8,1,.6,1.8,1.2,2.7,1.8,1.3-2,2.6-3.8,3.9-5.7,7.8,5.5,15.7,11.1,23.5,16.6-1.5,1.9-3,3.8-4.6,5.8.9.7,1.7,1.4,2.5,2.1,1.7-2,3.2-3.9,4.8-5.7,4.4,3.8,8.8,7.5,13.2,11.4,2.9,2.6,5.6,5.4,8.5,8.1Z"/>
  <path class="st9" d="M335.9,60.1c-1.2,2.4-2.4,4.7-3.6,7.2-18.1-8.4-36.7-14.9-56.3-19.4.7-2.7,1.3-5.2,1.9-7.8,9.3,2.6,18.6,5.3,28,7.9-.8,2.2-1.6,4.5-2.4,6.8,1.1.4,2,.7,3.1,1.1.9-2.3,1.7-4.6,2.6-6.8,8.9,3.7,17.8,7.3,26.7,11Z"/>
  <path class="st9" d="M334.8,135.2c-1.4,2.2-2.9,4.5-4.4,6.8-13.3-8.6-27.3-15.8-42.2-21.4,1-2.5,2.1-5,3.1-7.5,15.3,5.7,29.8,13.2,43.5,22.1Z"/>
  <path class="st9" d="M288,111.8c-.9,2.5-1.9,4.9-2.9,7.6-14.1-5.1-28.5-8.5-43.4-10.6.4-2.7.8-5.3,1.2-8,15.1,2,29.9,5.7,44.2,10.7.3,0,.5.2.8.3Z"/>
  <path class="st9" d="M365.2,169.1c-.6.7-1.1.3-1.6-.2-8.1-8-16.8-15.3-26-22-1.4-1-2.8-2-4.4-3.1,1.5-2.3,3-4.5,4.5-6.7,11.6,7.9,22.4,16.7,32.4,26.8-1.7,1.7-3.3,3.4-4.9,5.1Z"/>
  <path class="st12" d="M82.5,140.3c1.6,2.2,3.2,4.3,4.9,6.6-9.4,6.7-18.1,14-26.4,22.1-1.9-2-3.7-4-5.6-6,3.4-3.1,6.7-6.4,10.3-9.4,5.1-4.3,10.5-8.3,15.7-12.5.4-.3.7-.6,1.1-.9Z"/>
  <path class="st12" d="M111.7,122.8c1.2,2.3,2.4,4.7,3.6,6.9-8.5,5-16.9,10-25.4,15-1.4-2-2.9-4.2-4.5-6.4,8.4-5.8,17.1-11,26.3-15.5Z"/>
  <path class="st9" d="M274.5,39.3c-.6,2.6-1.1,5.2-1.7,7.7-9.3-1.5-18.5-3.1-27.9-4.6.4-2.5.7-5.2,1.1-7.8,3.9.6,7.8,1,11.7,1.7,5.6,1,11.2,2,16.8,3.1Z"/>
  <path class="st9" d="M239.5,100.3c-.4,2.6-.8,5.2-1.1,7.9-7.2-.5-14.4-1-21.6-1.5,0-2.6,0-5.3,0-8,4.3.2,8.6.4,12.9.7,3.3.2,6.5.6,9.8.9Z"/>
  <path class="st9" d="M195.6,99.3c.2,2.6.4,5.3.6,7.9-6.7.8-13.3,1.6-20.1,2.4-.3-2.5-.5-5.2-.8-7.9,6.8-.8,13.6-1.6,20.4-2.4Z"/>
  <path class="st9" d="M213.3,98.8v8.2h-13.8c-.1-2.5-.3-5.2-.4-7.8,4.7-.1,9.5-.2,14.2-.3Z"/>
  <path class="st10" d="M393.9,96.4c-1.6,1.9-3.2,3.7-4.8,5.7-.8-.7-1.7-1.4-2.5-2.1,1.6-2,3.1-3.9,4.6-5.8,1.1-1.3,2.2-2.6,3.3-3.9.8.7,1.7,1.3,2.6,2.1-1.1,1.4-2.1,2.7-3.2,4Z"/>
  <path class="st10" d="M367.6,77.6c-1.3,1.9-2.5,3.7-3.9,5.7-.9-.6-1.7-1.1-2.7-1.8,1.2-1.9,2.4-3.9,3.6-5.8,1-1.5,2.1-3,3.1-4.6.9.6,1.8,1.1,2.8,1.7-1,1.6-1.9,3.2-2.9,4.7Z"/>
  <path class="st10" d="M309.2,49.1c-.8,2.2-1.7,4.5-2.6,6.8-1-.4-2-.7-3.1-1.1.8-2.3,1.6-4.6,2.4-6.8.6-1.6,1.2-3.2,1.9-4.8,1,.4,2,.8,3.1,1.2-.6,1.6-1.1,3.2-1.7,4.7Z"/>
  <text class="st6" transform="translate(239.9 24.3)"><tspan x="0" y="0">9</tspan></text>
  <text class="st4" transform="translate(261.1 31.2)"><tspan x="0" y="0">+10</tspan></text>
  <text class="st4" transform="translate(323 51.3)"><tspan x="0" y="0">+30</tspan></text>
  <text class="st4" transform="translate(405.4 108.2)"><tspan x="0" y="0">+60</tspan></text>
  <text class="st6" transform="translate(173.3 24.5)"><tspan x="0" y="0">7</tspan></text>
  <text class="st6" transform="translate(106.6 38.9)"><tspan x="0" y="0">5</tspan></text>
  <text class="st6" transform="translate(46.8 69.7)"><tspan x="0" y="0">3</tspan></text>
  <text class="st7" transform="translate(92.4 97.5)"><tspan x="0" y="0">10</tspan></text>
  <text class="st7" transform="translate(169 77.1)"><tspan x="0" y="0">30</tspan></text>
  <text class="st7" transform="translate(229.6 77.1)"><tspan x="0" y="0">50</tspan></text>
  <text class="st7" transform="translate(335.9 117.5)"><tspan x="0" y="0">100</tspan></text>
  <text class="st5" transform="translate(39.5 158.3)"><tspan x="0" y="0">1</tspan></text>
  <text class="st5" transform="translate(61 129.4)"><tspan x="0" y="0">1.5</tspan></text>
  <text class="st5" transform="translate(100.4 114)"><tspan x="0" y="0">2</tspan></text>
  <text class="st5" transform="translate(167.3 92.3)"><tspan x="0" y="0">3</tspan></text>
  <text class="st5" transform="translate(209.2 89.7)"><tspan x="0" y="0">4</tspan></text>
  <text class="st5" transform="translate(238.1 92.3)"><tspan x="0" y="0">5</tspan></text>
  <text class="st5" transform="translate(283.2 102.4)"><tspan x="0" y="0">10</tspan></text>
  <text class="st5" transform="translate(8 176.2)"><tspan x="0" y="0">SWR</tspan></text>
  <text class="st1" transform="translate(8.7 43.2)"><tspan x="0" y="0">S</tspan></text>
  <text class="st6" transform="translate(8.7 151.8)"><tspan x="0" y="0">P</tspan></text>
  <text class="st2" transform="translate(343 149.3)"><tspan x="10" y="0">∞</tspan></text>
  <text class="st6" transform="translate(398.9 146.4)"><tspan x="0" y="0">%</tspan></text>
  <text class="st3" transform="translate(400.1 43.6)"><tspan x="0" y="0">dB</tspan></text>
</svg>