<?xml version="1.0" encoding="UTF-8"?>
<svg id="Layer_1" xmlns="http://www.w3.org/2000/svg" version="1.1" viewBox="0 0 486.6 197.9">
  <!-- Generator: Adobe Illustrator 29.2.1, SVG Export Plug-In . SVG Version: 2.1.0 Build 116)  -->
  <defs>
    <style>
      .st0 {
        font-size: 18px;
      }

      .st0, .st1, .st2, .st3, .st4, .st5, .st6 {
        font-family: MicrosoftSansSerif, 'Microsoft Sans Serif';
      }

      .st0, .st3, .st5 {
        fill: #fff;
      }

      .st7 {
        fill: #f7f5f5;
      }

      .st1, .st8, .st2, .st4 {
        fill: red;
      }

      .st1, .st6 {
        font-size: 32.4px;
      }

      .st9 {
        fill: #f6f4f2;
      }

      .st10 {
        fill: #faf5f4;
      }

      .st11 {
        fill: #f5f4f4;
      }

      .st2, .st3 {
        font-size: 21.6px;
      }

      .st12 {
        fill: lime;
      }

      .st4 {
        font-size: 46.9px;
        stroke: #ec1e24;
        stroke-miterlimit: 10;
        stroke-width: .2px;
      }

      .st5 {
        font-size: 19.8px;
      }

      .st6 {
        fill: #fac32e;
      }
    </style>
  </defs>
  <rect y=".4" width="486.6" height="198.2"/>
  <path class="st7" d="M372.3,67.1c.9-1.6,1.8-3.3,2.7-5,1.1.6,2.1,1.1,3.2,1.7-.8,1.7-1.6,3.4-2.4,5.1-1.4,2.6-2.8,5.2-4.3,7.9,30.8,15,58.3,34.4,82.8,58.5,2.1-2.2,4.1-4.3,6.2-6.5,1.3-1.2,2.6-2.4,4-3.7.8.8,1.6,1.7,2.1,2.2-3.6,3.9-7.2,7.8-10.8,11.7-61.8-60.1-135.3-91.5-221.3-91.4-85.9,0-159.3,31.7-220.8,91.6-1.9-2-3.6-3.9-5.4-5.8-1.7-1.8-3.5-3.7-5.1-5.4.8-.9,1.6-1.7,2.4-2.7,3.2,3.3,6.2,6.6,9.2,9.7,7.8-7,15.6-13.9,23.4-20.9-1.6-1.9-3.3-4-5-6.1.9-.8,1.8-1.5,2.9-2.4,1.8,2.1,3.5,4.2,5.1,6.2,8.5-6,17-12.1,25.5-18.1-2.3-3.8-4.6-7.6-7-11.7,1-.6,2-1.2,3.1-1.9,2.4,3.9,4.7,7.8,7,11.6,9.2-5.1,18.3-10.1,27.5-15.2-1.1-2.3-2.3-4.7-3.6-7.2,1.1-.5,2.1-1.1,3.3-1.7,1.2,2.5,2.5,4.9,3.7,7.2,9.6-4,19.2-7.9,28.9-11.9-1.5-4.2-3-8.6-4.5-13,1.2-.4,2.3-.8,3.5-1.2,1.5,4.5,3,8.8,4.4,13,10-2.9,20-5.7,30.1-8.6-.4-2.5-.9-5.1-1.3-7.9,1.2-.2,2.3-.4,3.6-.7.5,2.7.9,5.2,1.4,7.8,10.3-1.7,20.5-3.4,30.9-5.2-.4-4.5-.8-9.2-1.1-14,1.2-.1,2.4-.3,3.7-.4.4,4.8.8,9.5,1.2,14,10.5-.6,20.8-1.2,31.2-1.8v-7.8h3.8v7.8c10.5.6,20.8,1.1,31.2,1.7.7-4.5,1.3-9.2,2.1-14,1.2.2,2.4.3,3.6.5-.3,1.9-.5,3.8-.7,5.7-.4,2.9-.8,5.9-1.2,8.7,10.4,1.7,20.6,3.4,30.9,5.1.6-2.8,1.2-5.6,1.8-8.5.5-1.8.9-3.5,1.4-5.4,1.2.2,2.3.5,3.5.7-.4,1.9-.8,3.8-1.1,5.6-.7,2.9-1.4,5.7-2.2,8.7,21.7,5,42.3,12.2,62.4,21.5,1.4-2.8,2.7-5.4,4-8Z"/>
  <path class="st11" d="M270.6,66.6c-1.3-.1-2.4-.2-3.7-.3.4-4.1.9-8,1.4-12.4-11.4-.6-22.6-1.2-34.1-1.7v7.5h-3.8v-7.2c-11,.1-21.8.9-32.6,2.2.6,4.3,1.1,8.4,1.7,12.7-1.2.2-2.3.3-3.7.5-.6-4.3-1.2-8.5-1.8-12.8-12.8,1.6-25.2,4.2-37.5,7.4.7,2.7,1.3,5.2,2,7.9-1.2.3-2.3.6-3.6.9-.7-2.6-1.3-5.1-2-7.8-14.8,4.1-29.2,9.2-43.3,15.6,1.9,3.7,3.7,7.4,5.6,11.2-1.1.6-2.1,1.1-3.3,1.7-1.9-3.8-3.8-7.6-5.9-11.7-10.5,5.6-20.9,11.2-31.4,16.8,1.6,2.5,2.9,4.6,4.4,6.9-1,.7-2,1.4-3.1,2.1-1.4-2.2-2.8-4.4-4.3-6.7-18.8,11.7-35.8,25.4-51.5,40.8,3,3,6,6,9.1,9.1-1,.9-1.9,1.8-2.9,2.6-3.4-3.4-6.8-6.9-10.6-10.7,54.8-54,120.4-85.1,197.2-90.1,92.8-6.1,172.6,24.4,239.9,88.6-.8.8-1.2,1.3-1.8,1.8-14.8-14.8-30.9-28-48.5-39.4-2.2,3.4-4.4,6.7-6.7,10.2-1.1-.7-2-1.3-3.1-2,2.2-3.4,4.4-6.8,6.8-10.4-6.2-3.7-12.3-7.3-18.6-11-1.2,2.4-2.2,4.6-3.4,7-1.1-.6-2.2-1.1-3.4-1.7,1.1-2.3,2.2-4.6,3.4-7-6.5-3.1-12.9-6.2-19.5-9.4-.9,2.3-1.7,4.4-2.6,6.7-1.2-.4-2.3-.9-3.4-1.3.9-2.3,1.7-4.5,2.6-6.9-7.3-2.8-14.4-5.5-21.7-8.3-.8,2.5-1.5,4.8-2.3,7.2-1.2-.3-2.3-.7-3.5-1,.7-2.4,1.4-4.7,2.2-7.3-8-2.2-15.9-4.4-24-6.7-.5,2.5-1,4.8-1.6,7.2-1.2-.2-2.4-.5-3.7-.7.5-2.4,1-4.7,1.5-7.2-9.8-2.2-19.6-3.9-29.6-5-.5,4.1-.9,7.9-1.4,12Z"/>
  <path class="st9" d="M265.5,111.7c.3-1.9.6-3.7.9-5.6,0,0,0,0,.2-.3,1,.1,2.2.3,3.4.5-.3,2.1-.5,4-.7,6-.4,2.9-.9,5.8-1.4,8.8,16.5,2.4,32.5,6.1,48.1,11.8,1.1-2.9,2.1-5.7,3.2-8.4.8-2,1.7-3.9,2.5-6.1,1.1.4,2.2.8,3.4,1.3-.8,2.1-1.5,4.1-2.3,6.2-1.1,2.7-2.2,5.5-3.4,8.3,16.6,6.2,32.1,14.2,46.8,23.7,1.7-2.6,3.3-5,4.8-7.5,1.1-1.6,2.2-3.2,3.5-4.9,1,.6,1.9,1.3,3,2-1.1,1.8-2.2,3.4-3.3,5.1-1.7,2.4-3.3,4.9-5,7.4,1.7,1.2,3.3,2.3,4.9,3.4,10.2,7.4,19.9,15.4,28.8,24.3.6.6,1,1.1,1.8.3-.3.6-.7,1.2-1,1.7-47.4-45.6-103.6-69.3-169.4-69.1-65.7.2-121.7,24.5-168.6,70.2-4-3.9-7.8-7.7-11.6-11.5.9-.8,1.7-1.6,3-2.8,1.4,1.5,2.8,3.1,4.2,4.7,2.1,2.2,4.1,4.4,6.2,6.6,9.2-9,18.8-17.1,29.2-24.5-1.9-2.5-3.6-4.9-5.4-7.3-1.6-2.2-3.1-4.4-4.8-6.8,1-.7,1.9-1.4,2.9-2.2,1.7,2.3,3.4,4.6,5.1,6.9,1.7,2.4,3.4,4.9,4.9,7.1,9.5-5.6,18.8-11.1,28.2-16.6-1.3-2.4-2.6-5-4-7.6-.9-1.9-1.9-3.9-2.9-6,1-.5,2.1-1.1,3.3-1.7,2.1,4.3,4.2,8.5,6.4,12.9,11.3-5.5,23-10,35.1-13.6-1.3-4.9-2.6-9.7-3.9-14.7,1.2-.3,2.3-.6,3.6-1,1.3,4.9,2.6,9.7,3.9,14.5,7.4-1.7,14.6-3.4,22-5.1-.6-5-1.2-10-1.9-15.2,1.2-.2,2.4-.3,3.6-.5.4,2.4.7,4.7,1.1,7,.3,3,.6,5.9.9,8.7,7.6-.9,14.8-1.8,22.3-2.6-.2-2.9-.4-5.8-.7-8.7v-6.1h3.4c.1,1.9.3,3.9.4,5.8.2,3,.3,5.9.5,8.7h15.2v-9.1c0-2,.2-4.1.3-6.2h3.6c0,2,0,4.1,0,6.2,0,3,0,6,0,8.9,8,.5,15.9,1.1,23.9,1.6.4-2.9.8-5.8,1.3-8.7Z"/>
  <path class="st8" d="M460.5,128.8c-2,2.1-4.1,4.3-6.2,6.5-24.5-24.1-52-43.5-82.8-58.5,1.5-2.7,2.9-5.3,4.3-7.9,9.4,5.2,18.9,10.4,28.3,15.6-1.3,2.1-2.6,4.2-4,6.4,1.1.7,2,1.3,3,2,1.5-2.2,2.9-4.3,4.3-6.3,8.7,6.1,17.4,12.3,26,18.4-1.7,2.1-3.3,4.2-5.1,6.4,1,.8,1.9,1.5,2.8,2.3,1.9-2.2,3.6-4.3,5.3-6.4,4.9,4.2,9.8,8.3,14.6,12.6,3.2,2.9,6.3,6,9.4,8.9Z"/>
  <path class="st8" d="M372.3,67.1c-1.3,2.6-2.6,5.2-4,8-20.1-9.3-40.7-16.5-62.4-21.5.7-2.9,1.4-5.8,2.2-8.7,10.3,2.9,20.7,5.8,31,8.7-.9,2.5-1.7,5-2.6,7.6,1.2.4,2.3.8,3.4,1.2,1-2.6,1.9-5.1,2.9-7.5,9.9,4.1,19.8,8.1,29.6,12.2Z"/>
  <path class="st8" d="M371.1,150.4c-1.6,2.5-3.2,4.9-4.8,7.5-14.7-9.6-30.2-17.5-46.8-23.7,1.2-2.8,2.3-5.6,3.4-8.3,17,6.4,33,14.6,48.2,24.5Z"/>
  <path class="st8" d="M319.2,124.5c-1,2.7-2.1,5.5-3.2,8.4-15.6-5.7-31.6-9.4-48.1-11.8.5-3,.9-5.9,1.4-8.8,16.8,2.2,33.1,6.3,49,11.9.3.1.6.2.9.3Z"/>
  <path class="st8" d="M404.7,187.9c-.7.8-1.2.3-1.8-.3-8.9-8.9-18.6-17-28.8-24.3-1.6-1.1-3.2-2.2-4.9-3.4,1.7-2.5,3.4-4.9,5-7.4,12.8,8.7,24.8,18.5,35.9,29.7-1.8,1.9-3.6,3.8-5.4,5.7Z"/>
  <path class="st12" d="M91.5,156c1.8,2.4,3.5,4.8,5.4,7.3-10.4,7.4-20,15.5-29.2,24.5-2.1-2.2-4.2-4.4-6.2-6.6,3.8-3.5,7.5-7.1,11.4-10.4,5.7-4.7,11.6-9.2,17.4-13.8.4-.3.8-.7,1.2-1Z"/>
  <path class="st12" d="M123.9,136.7c1.3,2.6,2.7,5.2,4,7.6-9.4,5.6-18.7,11.1-28.2,16.6-1.5-2.2-3.2-4.7-4.9-7.1,9.3-6.4,19-12.2,29.2-17.2Z"/>
  <path class="st8" d="M304.2,44.1c-.6,2.9-1.2,5.7-1.8,8.5-10.3-1.7-20.5-3.4-30.9-5.1.4-2.8.8-5.7,1.2-8.7,4.3.6,8.7,1.2,13,1.9,6.2,1.1,12.4,2.3,18.6,3.4Z"/>
  <path class="st8" d="M265.5,111.7c-.4,2.9-.8,5.8-1.3,8.7-8-.5-15.9-1.1-23.9-1.6,0-2.9,0-5.9,0-8.9,4.8.3,9.6.5,14.3.8,3.6.3,7.2.6,10.8,1Z"/>
  <path class="st8" d="M216.8,110.6c.2,2.9.4,5.8.7,8.7-7.5.9-14.8,1.7-22.3,2.6-.3-2.8-.6-5.8-.9-8.7,7.5-.9,15-1.8,22.6-2.7Z"/>
  <path class="st8" d="M236.4,110v9.1h-15.2c-.1-2.8-.3-5.7-.5-8.7,5.2-.1,10.5-.3,15.7-.4Z"/>
  <path class="st10" d="M436.6,107.3c-1.7,2.1-3.5,4.2-5.3,6.4-.9-.8-1.8-1.5-2.8-2.3,1.7-2.2,3.4-4.3,5.1-6.4,1.2-1.4,2.4-2.9,3.7-4.3.9.7,1.9,1.5,2.9,2.3-1.2,1.5-2.3,2.9-3.5,4.4Z"/>
  <path class="st10" d="M407.4,86.5c-1.4,2.1-2.8,4.1-4.3,6.3-1-.6-1.9-1.3-3-2,1.3-2.2,2.6-4.3,4-6.4,1.1-1.7,2.3-3.3,3.5-5.1,1,.6,2,1.3,3.1,1.9-1.1,1.8-2.1,3.5-3.2,5.2Z"/>
  <path class="st10" d="M342.6,55c-.9,2.5-1.9,5-2.9,7.5-1.2-.4-2.2-.8-3.4-1.2.9-2.6,1.8-5.1,2.6-7.6.7-1.7,1.4-3.5,2.1-5.3,1.1.4,2.2.9,3.4,1.3-.7,1.8-1.3,3.5-1.9,5.2Z"/>
  <text class="st3" transform="translate(265.9 27.4)"><tspan x="0" y="0">9</tspan></text>
  <text class="st2" transform="translate(289.4 35.1)"><tspan x="0" y="0">+10</tspan></text>
  <text class="st2" transform="translate(358 57.3)"><tspan x="0" y="0">+30</tspan></text>
  <text class="st2" transform="translate(449.4 120.5)"><tspan x="0" y="0">+60</tspan></text>
  <text class="st3" transform="translate(192.1 27.7)"><tspan x="0" y="0">7</tspan></text>
  <text class="st3" transform="translate(118.1 43.6)"><tspan x="0" y="0">5</tspan></text>
  <text class="st3" transform="translate(51.9 77.8)"><tspan x="0" y="0">3</tspan></text>
  <text class="st5" transform="translate(102.4 108.6)"><tspan x="0" y="0">10</tspan></text>
  <text class="st5" transform="translate(187.3 86)"><tspan x="0" y="0">30</tspan></text>
  <text class="st5" transform="translate(254.5 86)"><tspan x="0" y="0">50</tspan></text>
  <text class="st5" transform="translate(372.3 130.8)"><tspan x="0" y="0">100</tspan></text>
  <text class="st0" transform="translate(43.8 175.9)"><tspan x="0" y="0">1</tspan></text>
  <text class="st0" transform="translate(67.7 143.9)"><tspan x="0" y="0">1.5</tspan></text>
  <text class="st0" transform="translate(111.2 126.9)"><tspan x="0" y="0">2</tspan></text>
  <text class="st0" transform="translate(185.5 102.8)"><tspan x="0" y="0">3</tspan></text>
  <text class="st0" transform="translate(231.8 100)"><tspan x="0" y="0">4</tspan></text>
  <text class="st0" transform="translate(263.9 102.8)"><tspan x="0" y="0">5</tspan></text>
  <text class="st0" transform="translate(313.9 114)"><tspan x="0" y="0">10</tspan></text>
  <text class="st0" transform="translate(8.9 195.8)"><tspan x="0" y="0">SWR</tspan></text>
  <text class="st6" transform="translate(9.7 48.4)"><tspan x="0" y="0">S</tspan></text>
  <text class="st3" transform="translate(9.7 168.8)"><tspan x="0" y="0">P</tspan></text>
  <text class="st4" transform="translate(380.2 166.1)"><tspan x="10" y="0">∞</tspan></text>
  <text class="st3" transform="translate(442.1 162.8)"><tspan x="0" y="0">%</tspan></text>
  <text class="st1" transform="translate(443.5 48.8)"><tspan x="0" y="0">dB</tspan></text>
</svg>